# xmcd
#
# Track frame offsets:
#	150
#	19775
#	39975
#	56525
#	72750
#	93975
#	115750
#	136125
#	156275
#	175925
#	195050
#	213875
#	235150
#	258225
#	281825
#	297950
#	312775
#	326450
#	344300
#
# Disc length: 4743 seconds
#
# Revision: 0
# Processed by: cddbd v1.5.2PL0 Copyright (c) Steve Scherf et al.
# Submitted via: EasyCDDAExtractor 10.0.3.1
#
DISCID=03128513
DTITLE=Various Artist - Pop and Wave Vol. 8 Cd 2
DYEAR=1999
DGENRE=
TTITLE0=David Bowie - China Girl
TTITLE1=Abc - When Smokey Sings
TTITLE2=Fine Young Cannibals - She Drives Me Crazy
TTITLE3=Art Of Noise - Kiss
TTITLE4=Blondie - Atomic
TTITLE5=Spandau Ballet - Only When You Leave
TTITLE6=Prefab Sprout - Cars And Girls
TTITLE7=Thomson Twins - Lay Your Hands On Me
TTITLE8=Dream Academy - Life In A Northern Town
TTITLE9=Duran Duran - Is There Something I Should Know
TTITLE10=XTC - Generals And Majors
TTITLE11=Psychedelic Furs - Pretty Is Pink
TTITLE12=Wire - Ahead
TTITLE13=Big Audio Dynamite - E =Mc²
TTITLE14=Split Enz - I Got You
TTITLE15=Lloyd Cole and The Commotions - Perfect Skin
TTITLE16=Toy Dolls - Nellie The Elephant
TTITLE17=Fischer Z - Marliese
TTITLE18=After The Fire - 1980-F
EXTD=
EXTT0=
EXTT1=
EXTT2=
EXTT3=
EXTT4=
EXTT5=
EXTT6=
EXTT7=
EXTT8=
EXTT9=
EXTT10=
EXTT11=
EXTT12=
EXTT13=
EXTT14=
EXTT15=
EXTT16=
EXTT17=
EXTT18=
PLAYORDER=
